# xmcd
# 
# Track frame offsets:
#     150
#     30032
#     37553
#     62698
#     117451
#     141877
#     195634
#     217507
#     241899
#     262693
#     270127
#     290855
#     304305
#     336283
# 
# Disc length: 4711
# 
# Revision: 1
# Processed by: cddbd v1.5.2PL0 Copyright (c) Steve Scherf et al.
# Submitted via: BonkEnc v1.0.8
# 
DISCID=b812650e
DTITLE=weirdoz* - games zum hören - Sacred 2 Fallen Angel - Der Schattenkrieger Folge 1
DYEAR=2008
DGENRE=Hörspiel
TTITLE0=Prolog
TTITLE1=Intro
TTITLE2=Ein herrliches Bouquet
TTITLE3=Öffne deine Augen!
TTITLE4=Heimlichkeit
TTITLE5=Zu Markt! Zu Markt!
TTITLE6=Rechenschaft
TTITLE7=Im eigenen Sud
TTITLE8=Die Merkator
TTITLE9=Perfekt
TTITLE10=Tausend Sterne
TTITLE11=Was rappelt in der Kiste?
TTITLE12=Seefäule
TTITLE13=Epilog
EXTD=
EXTT0=
EXTT1=
EXTT2=
EXTT3=
EXTT4=
EXTT5=
EXTT6=
EXTT7=
EXTT8=
EXTT9=
EXTT10=
EXTT11=
EXTT12=
EXTT13=
PLAYORDER=
